<?xml version="1.0" encoding="utf-8"?>
<!-- Generator: Adobe Illustrator 17.1.0, SVG Export Plug-In . SVG Version: 6.00 Build 0)  -->
<!DOCTYPE svg PUBLIC "-//W3C//DTD SVG 1.1//EN" "http://www.w3.org/Graphics/SVG/1.1/DTD/svg11.dtd">
<svg version="1.1" id="Capa_1" xmlns="http://www.w3.org/2000/svg" xmlns:xlink="http://www.w3.org/1999/xlink" x="0px" y="0px"
	 viewBox="0 0 16 16" enable-background="new 0 0 16 16" xml:space="preserve">
<g>
	<g>
		<path fill="#D00308" d="M8,0C3.6,0,0,3.6,0,8c0,4.4,3.6,8,8,8c4.4,0,8-3.6,8-8C16,3.6,12.4,0,8,0z M10,8.3H8.7c0,2.1,0,4.6,0,4.6
			H6.8c0,0,0-2.5,0-4.6H5.8V6.6h0.9V5.6c0-0.8,0.4-1.9,1.9-1.9l1.4,0v1.6c0,0-0.9,0-1,0c-0.2,0-0.4,0.1-0.4,0.4v1h1.5L10,8.3z"/>
	</g>
</g>
</svg>
