<?xml version="1.0" encoding="utf-8"?>
<!-- Generator: Adobe Illustrator 17.1.0, SVG Export Plug-In . SVG Version: 6.00 Build 0)  -->
<!DOCTYPE svg PUBLIC "-//W3C//DTD SVG 1.1//EN" "http://www.w3.org/Graphics/SVG/1.1/DTD/svg11.dtd">
<svg version="1.1" xmlns="http://www.w3.org/2000/svg" xmlns:xlink="http://www.w3.org/1999/xlink" x="0px" y="0px"
	 viewBox="0 0 16 16" enable-background="new 0 0 16 16" xml:space="preserve">
<g id="Capa_1" display="none">
	<g display="inline">
		<g>
			<path fill="#D00308" d="M8,0C3.6,0,0,3.6,0,8c0,4.4,3.6,8,8,8c4.4,0,8-3.6,8-8C16,3.6,12.4,0,8,0z M11.6,6.2c0,0.1,0,0.2,0,0.2
				c0,2.4-1.9,5.2-5.2,5.2c-1,0-2-0.3-2.8-0.8c0.1,0,0.3,0,0.4,0c0.9,0,1.7-0.3,2.3-0.8c-0.8,0-1.5-0.5-1.7-1.3c0.1,0,0.2,0,0.3,0
				c0.2,0,0.3,0,0.5-0.1C4.5,8.6,3.9,7.8,3.9,6.9c0,0,0,0,0,0c0.2,0.1,0.5,0.2,0.8,0.2C4.2,6.8,3.9,6.3,3.9,5.6C3.9,5.3,4,5,4.1,4.7
				C5,5.8,6.4,6.5,7.9,6.6c0-0.1,0-0.3,0-0.4c0-1,0.8-1.8,1.8-1.8c0.5,0,1,0.2,1.3,0.6c0.4-0.1,0.8-0.2,1.2-0.4
				c-0.1,0.4-0.4,0.8-0.8,1c0.4,0,0.7-0.1,1.1-0.3C12.2,5.6,11.9,5.9,11.6,6.2z"/>
		</g>
	</g>
</g>
<g id="Layer_2" display="none">
	<g id="Tumblr" display="inline">
		<g>
			<path fill-rule="evenodd" clip-rule="evenodd" fill="#D00308" d="M8.1,0.1C3.8,0.1,0.2,3.6,0.2,8c0,4.4,3.5,7.9,7.9,7.9
				c4.4,0,7.9-3.5,7.9-7.9C16,3.6,12.5,0.1,8.1,0.1z M10.3,11.4c-0.3,0.1-0.5,0.1-0.8,0.2c-0.2,0.1-0.5,0.1-0.8,0.1
				c-0.3,0-0.6,0-0.9-0.1c-0.3-0.1-0.5-0.2-0.6-0.4C7,11,6.9,10.9,6.8,10.7c-0.1-0.2-0.1-0.4-0.1-0.8V7.3H5.9v-1
				c0.3-0.1,0.5-0.2,0.7-0.4C6.8,5.7,7,5.5,7.1,5.2C7.2,5,7.3,4.7,7.4,4.3h1v1.9h1.7v1.2H8.4v1.9c0,0.4,0,0.7,0.1,0.8
				c0,0.1,0.1,0.2,0.2,0.3c0.2,0.1,0.3,0.1,0.5,0.1c0.4,0,0.7-0.1,1.1-0.4L10.3,11.4z"/>
		</g>
	</g>
	<path display="inline" fill="#FCFAFA" d="M5.9,6.3c0,0,1.2-0.1,1.5-2l1,0v1.9h1.7v1.2H8.4l0,2.3c0,0-0.1,1.4,1.9,0.5l0,1.3
		c0,0-3.2,1.4-3.6-1.3l0-2.8H5.9L5.9,6.3z"/>
</g>
<g id="Layer_4">
	<g id="Google_x2B_">
		<g>
			<path fill-rule="evenodd" clip-rule="evenodd" fill="#D00308" d="M7,9.2c-0.1,0-0.2,0-0.4,0c-0.2,0-0.5,0.1-0.7,0.2
				c-0.1,0-0.1,0.1-0.2,0.1c-0.1,0-0.2,0.1-0.3,0.2C5.3,9.8,5.2,9.9,5.1,10C5.1,10.2,5,10.3,5,10.5c0,0.4,0.2,0.7,0.5,1
				c0.3,0.3,0.8,0.4,1.4,0.4c0.5,0,0.9-0.1,1.2-0.3c0.3-0.2,0.4-0.5,0.4-0.9c0-0.3-0.1-0.5-0.3-0.7C8,9.8,7.7,9.5,7.3,9.2
				C7.2,9.2,7.1,9.2,7,9.2z M7.1,4.5C6.9,4.3,6.8,4.3,6.5,4.3C6.2,4.3,6,4.4,5.8,4.6C5.6,4.9,5.5,5.2,5.6,5.5c0,0.4,0.1,0.8,0.3,1.3
				C6,6.9,6.2,7.1,6.3,7.2c0.2,0.1,0.4,0.2,0.6,0.2c0.3,0,0.5-0.1,0.7-0.3C7.7,7,7.8,6.8,7.8,6.7c0-0.1,0-0.3,0-0.4
				c0-0.4-0.1-0.9-0.3-1.3C7.4,4.8,7.3,4.6,7.1,4.5z M8.2,0.3c-4.3,0-7.8,3.5-7.8,7.8c0,4.3,3.5,7.8,7.8,7.8S16,12.4,16,8.1
				C16,3.8,12.5,0.3,8.2,0.3z M8.3,4.5c0.1,0.1,0.2,0.2,0.2,0.3c0.1,0.1,0.1,0.3,0.2,0.4c0,0.2,0.1,0.4,0.1,0.6c0,0.4-0.1,0.7-0.3,1
				C8.4,6.9,8.4,7,8.3,7.1C8.2,7.2,8.1,7.3,7.9,7.4C7.9,7.4,7.8,7.5,7.8,7.6C7.7,7.7,7.7,7.8,7.7,7.9c0,0.1,0,0.2,0.1,0.3
				c0.1,0.1,0.1,0.1,0.2,0.2l0.4,0.3c0.2,0.2,0.4,0.4,0.6,0.6c0.2,0.2,0.2,0.5,0.3,0.9c0,0.5-0.2,1-0.7,1.4
				c-0.5,0.4-1.2,0.7-2.1,0.7c-0.8,0-1.3-0.2-1.7-0.5c-0.4-0.3-0.6-0.7-0.6-1.1c0-0.2,0.1-0.4,0.2-0.7c0.1-0.3,0.3-0.5,0.7-0.7
				C5.3,9.2,5.6,9.1,6,9c0.4-0.1,0.7-0.1,1-0.1C6.9,8.8,6.8,8.7,6.8,8.6C6.7,8.5,6.7,8.3,6.7,8.2c0-0.1,0-0.2,0-0.2
				c0-0.1,0-0.1,0.1-0.2c-0.1,0-0.2,0-0.3,0c-0.6,0-1-0.2-1.3-0.6C4.8,6.8,4.6,6.4,4.6,6c0-0.5,0.2-1,0.7-1.5c0.3-0.3,0.6-0.4,1-0.5
				c0.3-0.1,0.6-0.1,0.9-0.1h2.2L8.7,4.3H8C8.1,4.3,8.2,4.4,8.3,4.5z M12.3,5.7h-1.1v1.2h-0.6V5.7H9.5V5.1h1.1V3.9h0.6v1.2h1.1V5.7z
				"/>
		</g>
	</g>
</g>
<g id="Layer_3" display="none">
	<g id="LinkedIn" display="inline">
		<g>
			<path fill-rule="evenodd" clip-rule="evenodd" fill="#D00308" d="M8.1,0c-4.4,0-8,3.6-8,8s3.6,8,8,8c4.4,0,8-3.6,8-8
				S12.5,0,8.1,0z M6,11.9H4.5V6.7H6V11.9z M5.3,6C4.7,6,4.3,5.6,4.3,5.1c0-0.5,0.4-0.9,0.9-0.9c0.5,0,0.9,0.4,0.9,0.9
				C6.2,5.6,5.8,6,5.3,6z M11.9,11.9h-1.6V9.4c0-0.6,0-1.4-0.8-1.4C8.7,8,8.6,8.6,8.6,9.3v2.6H7V6.7h1.5v0.7h0C8.8,7,9.3,6.6,10,6.6
				c1.6,0,1.9,1.1,1.9,2.5V11.9z"/>
		</g>
	</g>
</g>
</svg>
