<?xml version="1.0" encoding="utf-8"?>
<!-- Generator: Adobe Illustrator 17.1.0, SVG Export Plug-In . SVG Version: 6.00 Build 0)  -->
<!DOCTYPE svg PUBLIC "-//W3C//DTD SVG 1.1//EN" "http://www.w3.org/Graphics/SVG/1.1/DTD/svg11.dtd">
<svg version="1.1" xmlns="http://www.w3.org/2000/svg" xmlns:xlink="http://www.w3.org/1999/xlink" x="0px" y="0px"
	 viewBox="0 0 16 16" enable-background="new 0 0 16 16" xml:space="preserve">
<g id="Capa_1">
	<g>
		<g>
			<g>
				<path fill="#D00308" d="M8,9.6c0.9,0,1.6-0.7,1.6-1.6c0-0.3-0.1-0.7-0.3-0.9C9,6.7,8.5,6.4,8,6.4c-0.5,0-1,0.3-1.3,0.7
					C6.5,7.3,6.4,7.7,6.4,8C6.4,8.9,7.1,9.6,8,9.6z"/>
				<polygon fill="#D00308" points="11.5,6 11.5,4.7 11.5,4.5 11.3,4.5 10,4.5 10,6 				"/>
				<path fill="#D00308" d="M8,0C3.6,0,0,3.6,0,8c0,4.4,3.6,8,8,8c4.4,0,8-3.6,8-8C16,3.6,12.4,0,8,0z M12.5,7.1v3.7
					c0,1-0.8,1.8-1.8,1.8H5.2c-1,0-1.8-0.8-1.8-1.8V7.1V5.2c0-1,0.8-1.8,1.8-1.8h5.6c1,0,1.8,0.8,1.8,1.8V7.1z"/>
				<path fill="#D00308" d="M10.5,8c0,1.4-1.1,2.5-2.5,2.5S5.5,9.4,5.5,8c0-0.3,0.1-0.6,0.2-0.9H4.3v3.7c0,0.5,0.4,0.9,0.9,0.9h5.6
					c0.5,0,0.9-0.4,0.9-0.9V7.1h-1.4C10.4,7.4,10.5,7.7,10.5,8z"/>
			</g>
		</g>
	</g>
	<ellipse fill="#D00308" cx="32.7" cy="7.8" rx="7.8" ry="8.2"/>
</g>
<g id="Layer_2">
</g>
</svg>
