<?xml version="1.0" encoding="utf-8"?>
<!-- Generator: Adobe Illustrator 17.1.0, SVG Export Plug-In . SVG Version: 6.00 Build 0)  -->
<!DOCTYPE svg PUBLIC "-//W3C//DTD SVG 1.1//EN" "http://www.w3.org/Graphics/SVG/1.1/DTD/svg11.dtd">
<svg version="1.1" xmlns="http://www.w3.org/2000/svg" xmlns:xlink="http://www.w3.org/1999/xlink" x="0px" y="0px"
	 viewBox="0 0 16 16" enable-background="new 0 0 16 16" xml:space="preserve">
<g id="Capa_1" display="none">
	<g display="inline">
		<g>
			<path fill="#D00308" d="M8,0C3.6,0,0,3.6,0,8c0,4.4,3.6,8,8,8c4.4,0,8-3.6,8-8C16,3.6,12.4,0,8,0z M11.6,6.2c0,0.1,0,0.2,0,0.2
				c0,2.4-1.9,5.2-5.2,5.2c-1,0-2-0.3-2.8-0.8c0.1,0,0.3,0,0.4,0c0.9,0,1.7-0.3,2.3-0.8c-0.8,0-1.5-0.5-1.7-1.3c0.1,0,0.2,0,0.3,0
				c0.2,0,0.3,0,0.5-0.1C4.5,8.6,3.9,7.8,3.9,6.9c0,0,0,0,0,0c0.2,0.1,0.5,0.2,0.8,0.2C4.2,6.8,3.9,6.3,3.9,5.6C3.9,5.3,4,5,4.1,4.7
				C5,5.8,6.4,6.5,7.9,6.6c0-0.1,0-0.3,0-0.4c0-1,0.8-1.8,1.8-1.8c0.5,0,1,0.2,1.3,0.6c0.4-0.1,0.8-0.2,1.2-0.4
				c-0.1,0.4-0.4,0.8-0.8,1c0.4,0,0.7-0.1,1.1-0.3C12.2,5.6,11.9,5.9,11.6,6.2z"/>
		</g>
	</g>
</g>
<g id="Layer_2">
	<g id="Tumblr">
		<g>
			<path fill-rule="evenodd" clip-rule="evenodd" fill="#D00308" d="M8.1,0.1C3.8,0.1,0.2,3.6,0.2,8c0,4.4,3.5,7.9,7.9,7.9
				c4.4,0,7.9-3.5,7.9-7.9C16,3.6,12.5,0.1,8.1,0.1z M10.3,11.4c-0.3,0.1-0.5,0.1-0.8,0.2c-0.2,0.1-0.5,0.1-0.8,0.1
				c-0.3,0-0.6,0-0.9-0.1c-0.3-0.1-0.5-0.2-0.6-0.4C7,11,6.9,10.9,6.8,10.7c-0.1-0.2-0.1-0.4-0.1-0.8V7.3H5.9v-1
				c0.3-0.1,0.5-0.2,0.7-0.4C6.8,5.7,7,5.5,7.1,5.2C7.2,5,7.3,4.7,7.4,4.3h1v1.9h1.7v1.2H8.4v1.9c0,0.4,0,0.7,0.1,0.8
				c0,0.1,0.1,0.2,0.2,0.3c0.2,0.1,0.3,0.1,0.5,0.1c0.4,0,0.7-0.1,1.1-0.4L10.3,11.4z"/>
		</g>
	</g>
	<path fill="#FCFAFA" d="M5.9,6.3c0,0,1.2-0.1,1.5-2l1,0v1.9h1.7v1.2H8.4l0,2.3c0,0-0.1,1.4,1.9,0.5l0,1.3c0,0-3.2,1.4-3.6-1.3
		l0-2.8H5.9L5.9,6.3z"/>
</g>
</svg>
