<?xml version="1.0" encoding="utf-8"?>
<!-- Generator: Adobe Illustrator 17.1.0, SVG Export Plug-In . SVG Version: 6.00 Build 0)  -->
<!DOCTYPE svg PUBLIC "-//W3C//DTD SVG 1.1//EN" "http://www.w3.org/Graphics/SVG/1.1/DTD/svg11.dtd">
<svg version="1.1" id="Capa_1" xmlns="http://www.w3.org/2000/svg" xmlns:xlink="http://www.w3.org/1999/xlink" x="0px" y="0px"
	 viewBox="0 0 16 16" enable-background="new 0 0 16 16" xml:space="preserve">
<g>
	<g>
		<path fill="#D00308" d="M8,0C3.6,0,0,3.6,0,8c0,4.4,3.6,8,8,8c4.4,0,8-3.6,8-8C16,3.6,12.4,0,8,0z M11.6,6.2c0,0.1,0,0.2,0,0.2
			c0,2.4-1.9,5.2-5.2,5.2c-1,0-2-0.3-2.8-0.8c0.1,0,0.3,0,0.4,0c0.9,0,1.7-0.3,2.3-0.8c-0.8,0-1.5-0.5-1.7-1.3c0.1,0,0.2,0,0.3,0
			c0.2,0,0.3,0,0.5-0.1C4.5,8.6,3.9,7.8,3.9,6.9c0,0,0,0,0,0c0.2,0.1,0.5,0.2,0.8,0.2C4.2,6.8,3.9,6.3,3.9,5.6C3.9,5.3,4,5,4.1,4.7
			C5,5.8,6.4,6.5,7.9,6.6c0-0.1,0-0.3,0-0.4c0-1,0.8-1.8,1.8-1.8c0.5,0,1,0.2,1.3,0.6c0.4-0.1,0.8-0.2,1.2-0.4
			c-0.1,0.4-0.4,0.8-0.8,1c0.4,0,0.7-0.1,1.1-0.3C12.2,5.6,11.9,5.9,11.6,6.2z"/>
	</g>
</g>
</svg>
