<?xml version="1.0" encoding="utf-8"?>
<!-- Generator: Adobe Illustrator 17.1.0, SVG Export Plug-In . SVG Version: 6.00 Build 0)  -->
<!DOCTYPE svg PUBLIC "-//W3C//DTD SVG 1.1//EN" "http://www.w3.org/Graphics/SVG/1.1/DTD/svg11.dtd">
<svg version="1.1" xmlns="http://www.w3.org/2000/svg" xmlns:xlink="http://www.w3.org/1999/xlink" x="0px" y="0px"
	 viewBox="0 0 750 750" enable-background="new 0 0 750 750" xml:space="preserve">
<g id="Layer_2">
	<rect fill="#CF0004" width="750" height="750"/>
</g>
<g id="Layer_1" display="none">
	
		<text transform="matrix(1 0 0 1 -14.9998 461.3934)" display="inline" fill="#161616" font-family="'MonotypeCorsiva'" font-size="559.3309">D</text>
	
		<text transform="matrix(0.9278 -0.3731 0.3731 0.9278 251.6992 543.5482)" display="inline" fill="#161616" font-family="'MonotypeCorsiva'" font-size="469.938">W</text>
	
		<text transform="matrix(1 0 0 1 109.4761 553.8203)" display="inline" fill="#161616" font-family="'DaunPenh'" font-size="158.8537">diana wallace </text>
	
		<text transform="matrix(1 -5.634146e-003 5.634146e-003 1 109.4762 663.7527)" display="inline" fill="#161616" font-family="'DaunPenh'" font-size="62.9284">illustrator</text>
	
		<text transform="matrix(1 8.610302e-003 -8.610302e-003 1 457.2458 663.7524)" display="inline" fill="#161616" font-family="'DaunPenh'" font-size="62.9307">web developer</text>
</g>
<g id="Layer_3">
	<text transform="matrix(1 0 0 1 -8.6665 451.6406)" fill="#F9F9F9" font-family="'MonotypeCorsiva'" font-size="559.3309">D</text>
	
		<text transform="matrix(0.9278 -0.3731 0.3731 0.9278 258.0324 533.7955)" fill="#F9F9F9" font-family="'MonotypeCorsiva'" font-size="469.938">W</text>
	<text transform="matrix(1 0 0 1 115.8095 544.0675)" fill="#F9F9F9" font-family="'DaunPenh'" font-size="158.8537">diana wallace </text>
	
		<text transform="matrix(1 -5.634146e-003 5.634146e-003 1 115.8096 653.9999)" fill="#F9F9F9" font-family="'DaunPenh'" font-size="62.9284">illustrator</text>
	
		<text transform="matrix(1 8.610302e-003 -8.610302e-003 1 463.5791 653.9996)" fill="#F9F9F9" font-family="'DaunPenh'" font-size="62.9307">web developer</text>
</g>
</svg>
